# xmcd
#
# Track frame offsets:
#	150
#	20172
#	41282
#	63485
#	84692
#	106930
#	124810
#	145975
#	167882
#	191640
#
# Disc length: 2855 seconds
#
# Revision: 1
# Processed by: cddbd v1.5PL3 Copyright (c) Steve Scherf et al.
# Submitted via: CDex 1.50Beta5
#
DISCID=8c0b250a
DTITLE=森口博子 - LET’S GO
DYEAR=1994
DGENRE=Pop
TTITLE0=だいじょうぶ
TTITLE1=でっかいことをやろう
TTITLE2=Let’s Go
TTITLE3=髪を切ったら
TTITLE4=胸がときめくバラード
TTITLE5=ふう
TTITLE6=掘り出し物よ
TTITLE7=あなたのことを思っている
TTITLE8=おそろいの痛手
TTITLE9=エイッ!とまたハリキッて
EXTD=
EXTT0=
EXTT1=
EXTT2=
EXTT3=
EXTT4=
EXTT5=
EXTT6=
EXTT7=
EXTT8=
EXTT9=
PLAYORDER=
